<mxfile host="app.diagrams.net" modified="2022-04-01T11:15:51.286Z" agent="5.0 (Windows NT 10.0; Win64; x64) AppleWebKit/537.36 (KHTML, like Gecko) Chrome/100.0.4896.60 Safari/537.36" etag="KOAZqg2pPcoM-pcDpbeQ" version="17.4.0" type="github">
  <diagram id="eeuxolkVPf6MTtz5Hwx6" name="Page-1">
    <mxGraphModel dx="1735" dy="1836" grid="1" gridSize="10" guides="1" tooltips="1" connect="1" arrows="1" fold="1" page="1" pageScale="1" pageWidth="827" pageHeight="1169" math="0" shadow="0">
      <root>
        <mxCell id="0" />
        <mxCell id="1" parent="0" />
        <mxCell id="OOfffAFFu63hO1M-mAU9-9" style="edgeStyle=orthogonalEdgeStyle;rounded=0;orthogonalLoop=1;jettySize=auto;html=1;entryX=0.5;entryY=1;entryDx=0;entryDy=0;" edge="1" parent="1" source="OOfffAFFu63hO1M-mAU9-1" target="OOfffAFFu63hO1M-mAU9-5">
          <mxGeometry relative="1" as="geometry" />
        </mxCell>
        <mxCell id="OOfffAFFu63hO1M-mAU9-10" value="Index - GetAll" style="edgeLabel;html=1;align=center;verticalAlign=middle;resizable=0;points=[];" vertex="1" connectable="0" parent="OOfffAFFu63hO1M-mAU9-9">
          <mxGeometry x="0.3745" relative="1" as="geometry">
            <mxPoint as="offset" />
          </mxGeometry>
        </mxCell>
        <mxCell id="OOfffAFFu63hO1M-mAU9-14" value="Calculate - GetFinalPrice" style="edgeStyle=orthogonalEdgeStyle;rounded=0;orthogonalLoop=1;jettySize=auto;html=1;entryX=0.5;entryY=1;entryDx=0;entryDy=0;" edge="1" parent="1" source="OOfffAFFu63hO1M-mAU9-1" target="OOfffAFFu63hO1M-mAU9-3">
          <mxGeometry relative="1" as="geometry" />
        </mxCell>
        <mxCell id="OOfffAFFu63hO1M-mAU9-1" value="Calculation Controller" style="swimlane;" vertex="1" parent="1">
          <mxGeometry x="329" y="640" width="170" height="120" as="geometry" />
        </mxCell>
        <mxCell id="OOfffAFFu63hO1M-mAU9-2" value="- Index&lt;br&gt;- Calculate" style="text;html=1;align=center;verticalAlign=middle;resizable=0;points=[];autosize=1;strokeColor=none;fillColor=none;" vertex="1" parent="OOfffAFFu63hO1M-mAU9-1">
          <mxGeometry y="40" width="70" height="30" as="geometry" />
        </mxCell>
        <mxCell id="OOfffAFFu63hO1M-mAU9-23" value="GetFinalPrice - GetProductById" style="edgeStyle=orthogonalEdgeStyle;rounded=0;orthogonalLoop=1;jettySize=auto;html=1;entryX=1;entryY=0.5;entryDx=0;entryDy=0;" edge="1" parent="1" source="OOfffAFFu63hO1M-mAU9-3" target="OOfffAFFu63hO1M-mAU9-18">
          <mxGeometry relative="1" as="geometry" />
        </mxCell>
        <mxCell id="OOfffAFFu63hO1M-mAU9-24" value="GetFinalPrice -&lt;br&gt;GetDiscountsById" style="edgeStyle=orthogonalEdgeStyle;rounded=0;orthogonalLoop=1;jettySize=auto;html=1;entryX=0;entryY=0.5;entryDx=0;entryDy=0;" edge="1" parent="1" source="OOfffAFFu63hO1M-mAU9-3" target="OOfffAFFu63hO1M-mAU9-15">
          <mxGeometry relative="1" as="geometry" />
        </mxCell>
        <mxCell id="OOfffAFFu63hO1M-mAU9-3" value="CalculationService" style="swimlane;" vertex="1" parent="1">
          <mxGeometry x="349" y="390" width="130" height="130" as="geometry" />
        </mxCell>
        <mxCell id="OOfffAFFu63hO1M-mAU9-4" value="- GetFinalPrice" style="text;html=1;align=center;verticalAlign=middle;resizable=0;points=[];autosize=1;strokeColor=none;fillColor=none;" vertex="1" parent="OOfffAFFu63hO1M-mAU9-3">
          <mxGeometry y="40" width="100" height="20" as="geometry" />
        </mxCell>
        <mxCell id="OOfffAFFu63hO1M-mAU9-22" value="GetAll - GetAll" style="edgeStyle=orthogonalEdgeStyle;rounded=0;orthogonalLoop=1;jettySize=auto;html=1;entryX=0.5;entryY=1;entryDx=0;entryDy=0;" edge="1" parent="1" source="OOfffAFFu63hO1M-mAU9-5" target="OOfffAFFu63hO1M-mAU9-15">
          <mxGeometry relative="1" as="geometry">
            <mxPoint x="620" y="130" as="targetPoint" />
            <Array as="points">
              <mxPoint x="675" y="410" />
              <mxPoint x="675" y="410" />
            </Array>
          </mxGeometry>
        </mxCell>
        <mxCell id="OOfffAFFu63hO1M-mAU9-5" value="CustomerService" style="swimlane;" vertex="1" parent="1">
          <mxGeometry x="580" y="440" width="150" height="130" as="geometry" />
        </mxCell>
        <mxCell id="OOfffAFFu63hO1M-mAU9-8" value="- GetAll" style="text;html=1;align=center;verticalAlign=middle;resizable=0;points=[];autosize=1;strokeColor=none;fillColor=none;" vertex="1" parent="OOfffAFFu63hO1M-mAU9-5">
          <mxGeometry x="10" y="50" width="60" height="20" as="geometry" />
        </mxCell>
        <mxCell id="OOfffAFFu63hO1M-mAU9-21" value="GetAll - GetAll" style="edgeStyle=orthogonalEdgeStyle;rounded=0;orthogonalLoop=1;jettySize=auto;html=1;entryX=0.5;entryY=1;entryDx=0;entryDy=0;" edge="1" parent="1" source="OOfffAFFu63hO1M-mAU9-6" target="OOfffAFFu63hO1M-mAU9-18">
          <mxGeometry relative="1" as="geometry" />
        </mxCell>
        <mxCell id="OOfffAFFu63hO1M-mAU9-6" value="ProductService" style="swimlane;" vertex="1" parent="1">
          <mxGeometry x="125" y="440" width="150" height="130" as="geometry" />
        </mxCell>
        <mxCell id="OOfffAFFu63hO1M-mAU9-7" value="- GetAll" style="text;html=1;align=center;verticalAlign=middle;resizable=0;points=[];autosize=1;strokeColor=none;fillColor=none;" vertex="1" parent="OOfffAFFu63hO1M-mAU9-6">
          <mxGeometry x="15" y="55" width="60" height="20" as="geometry" />
        </mxCell>
        <mxCell id="OOfffAFFu63hO1M-mAU9-11" style="edgeStyle=orthogonalEdgeStyle;rounded=0;orthogonalLoop=1;jettySize=auto;html=1;entryX=0.5;entryY=1;entryDx=0;entryDy=0;" edge="1" parent="1" source="OOfffAFFu63hO1M-mAU9-2" target="OOfffAFFu63hO1M-mAU9-6">
          <mxGeometry relative="1" as="geometry">
            <mxPoint x="160" y="450" as="targetPoint" />
            <Array as="points">
              <mxPoint x="200" y="695" />
            </Array>
          </mxGeometry>
        </mxCell>
        <mxCell id="OOfffAFFu63hO1M-mAU9-13" value="Index - GetAll" style="edgeLabel;html=1;align=center;verticalAlign=middle;resizable=0;points=[];" vertex="1" connectable="0" parent="OOfffAFFu63hO1M-mAU9-11">
          <mxGeometry x="0.4033" y="1" relative="1" as="geometry">
            <mxPoint as="offset" />
          </mxGeometry>
        </mxCell>
        <mxCell id="OOfffAFFu63hO1M-mAU9-28" value="GetAllCustomers" style="edgeStyle=orthogonalEdgeStyle;rounded=0;orthogonalLoop=1;jettySize=auto;html=1;entryX=1;entryY=0.5;entryDx=0;entryDy=0;" edge="1" parent="1" source="OOfffAFFu63hO1M-mAU9-15" target="OOfffAFFu63hO1M-mAU9-26">
          <mxGeometry relative="1" as="geometry" />
        </mxCell>
        <mxCell id="OOfffAFFu63hO1M-mAU9-29" value="GetDiscountsByCustomerId" style="edgeStyle=orthogonalEdgeStyle;rounded=0;orthogonalLoop=1;jettySize=auto;html=1;entryX=0.5;entryY=1;entryDx=0;entryDy=0;" edge="1" parent="1" source="OOfffAFFu63hO1M-mAU9-15" target="OOfffAFFu63hO1M-mAU9-25">
          <mxGeometry relative="1" as="geometry" />
        </mxCell>
        <mxCell id="OOfffAFFu63hO1M-mAU9-15" value="CustomerRepository" style="swimlane;" vertex="1" parent="1">
          <mxGeometry x="580" y="200" width="190" height="120" as="geometry" />
        </mxCell>
        <mxCell id="OOfffAFFu63hO1M-mAU9-16" value="- GetDiscountsByCustomerId" style="text;html=1;align=center;verticalAlign=middle;resizable=0;points=[];autosize=1;strokeColor=none;fillColor=none;" vertex="1" parent="OOfffAFFu63hO1M-mAU9-15">
          <mxGeometry y="30" width="170" height="20" as="geometry" />
        </mxCell>
        <mxCell id="OOfffAFFu63hO1M-mAU9-17" value="- GetAllCustomers" style="text;html=1;align=center;verticalAlign=middle;resizable=0;points=[];autosize=1;strokeColor=none;fillColor=none;" vertex="1" parent="OOfffAFFu63hO1M-mAU9-15">
          <mxGeometry x="10" y="70" width="110" height="20" as="geometry" />
        </mxCell>
        <mxCell id="OOfffAFFu63hO1M-mAU9-30" value="GetAll, GetProductById" style="edgeStyle=orthogonalEdgeStyle;rounded=0;orthogonalLoop=1;jettySize=auto;html=1;entryX=0.5;entryY=1;entryDx=0;entryDy=0;" edge="1" parent="1" source="OOfffAFFu63hO1M-mAU9-18" target="OOfffAFFu63hO1M-mAU9-27">
          <mxGeometry relative="1" as="geometry" />
        </mxCell>
        <mxCell id="OOfffAFFu63hO1M-mAU9-18" value="ProductRepository" style="swimlane;" vertex="1" parent="1">
          <mxGeometry x="120" y="170" width="160" height="140" as="geometry" />
        </mxCell>
        <mxCell id="OOfffAFFu63hO1M-mAU9-19" value="- GetAll" style="text;html=1;align=center;verticalAlign=middle;resizable=0;points=[];autosize=1;strokeColor=none;fillColor=none;" vertex="1" parent="OOfffAFFu63hO1M-mAU9-18">
          <mxGeometry x="10" y="30" width="60" height="20" as="geometry" />
        </mxCell>
        <mxCell id="OOfffAFFu63hO1M-mAU9-20" value="- GetProductById" style="text;html=1;align=center;verticalAlign=middle;resizable=0;points=[];autosize=1;strokeColor=none;fillColor=none;" vertex="1" parent="OOfffAFFu63hO1M-mAU9-18">
          <mxGeometry x="10" y="70" width="110" height="20" as="geometry" />
        </mxCell>
        <mxCell id="OOfffAFFu63hO1M-mAU9-25" value="DiscountBase" style="swimlane;" vertex="1" parent="1">
          <mxGeometry x="470" y="30" width="120" height="100" as="geometry" />
        </mxCell>
        <mxCell id="OOfffAFFu63hO1M-mAU9-26" value="Customer" style="swimlane;" vertex="1" parent="1">
          <mxGeometry x="660" y="30" width="120" height="100" as="geometry" />
        </mxCell>
        <mxCell id="OOfffAFFu63hO1M-mAU9-27" value="Product" style="swimlane;" vertex="1" parent="1">
          <mxGeometry x="140" y="30" width="120" height="100" as="geometry" />
        </mxCell>
        <mxCell id="OOfffAFFu63hO1M-mAU9-31" value="Id,&amp;nbsp;&lt;br&gt;Name&lt;br&gt;BasePrice" style="text;html=1;align=center;verticalAlign=middle;resizable=0;points=[];autosize=1;strokeColor=none;fillColor=none;" vertex="1" parent="OOfffAFFu63hO1M-mAU9-27">
          <mxGeometry x="20" y="40" width="70" height="50" as="geometry" />
        </mxCell>
        <mxCell id="OOfffAFFu63hO1M-mAU9-32" value="Id&lt;br&gt;Value&lt;br&gt;CustomerId" style="text;html=1;align=center;verticalAlign=middle;resizable=0;points=[];autosize=1;strokeColor=none;fillColor=none;" vertex="1" parent="1">
          <mxGeometry x="480" y="55" width="80" height="50" as="geometry" />
        </mxCell>
        <mxCell id="OOfffAFFu63hO1M-mAU9-33" value="Id&lt;br&gt;Name" style="text;html=1;align=center;verticalAlign=middle;resizable=0;points=[];autosize=1;strokeColor=none;fillColor=none;" vertex="1" parent="1">
          <mxGeometry x="675" y="65" width="50" height="30" as="geometry" />
        </mxCell>
        <mxCell id="OOfffAFFu63hO1M-mAU9-37" style="edgeStyle=orthogonalEdgeStyle;rounded=0;orthogonalLoop=1;jettySize=auto;html=1;entryX=0.5;entryY=0;entryDx=0;entryDy=0;" edge="1" parent="1" source="OOfffAFFu63hO1M-mAU9-34" target="OOfffAFFu63hO1M-mAU9-25">
          <mxGeometry relative="1" as="geometry">
            <Array as="points">
              <mxPoint x="680" y="-20" />
              <mxPoint x="530" y="-20" />
            </Array>
          </mxGeometry>
        </mxCell>
        <mxCell id="OOfffAFFu63hO1M-mAU9-41" value="Inheritance" style="edgeLabel;html=1;align=center;verticalAlign=middle;resizable=0;points=[];" vertex="1" connectable="0" parent="OOfffAFFu63hO1M-mAU9-37">
          <mxGeometry x="-0.1333" relative="1" as="geometry">
            <mxPoint as="offset" />
          </mxGeometry>
        </mxCell>
        <mxCell id="OOfffAFFu63hO1M-mAU9-34" value="DiscountPeriod (DiscountBase)" style="swimlane;" vertex="1" parent="1">
          <mxGeometry x="580" y="-170" width="200" height="110" as="geometry" />
        </mxCell>
        <mxCell id="OOfffAFFu63hO1M-mAU9-38" value="Inheritance" style="edgeStyle=orthogonalEdgeStyle;rounded=0;orthogonalLoop=1;jettySize=auto;html=1;" edge="1" parent="1" source="OOfffAFFu63hO1M-mAU9-35">
          <mxGeometry x="-0.7895" relative="1" as="geometry">
            <mxPoint x="530" y="30" as="targetPoint" />
            <Array as="points">
              <mxPoint x="430" y="-20" />
              <mxPoint x="530" y="-20" />
            </Array>
            <mxPoint as="offset" />
          </mxGeometry>
        </mxCell>
        <mxCell id="OOfffAFFu63hO1M-mAU9-35" value="DiscountSpecial (DiscountBase)" style="swimlane;" vertex="1" parent="1">
          <mxGeometry x="330" y="-170" width="200" height="110" as="geometry" />
        </mxCell>
        <mxCell id="OOfffAFFu63hO1M-mAU9-39" style="edgeStyle=orthogonalEdgeStyle;rounded=0;orthogonalLoop=1;jettySize=auto;html=1;" edge="1" parent="1" source="OOfffAFFu63hO1M-mAU9-36">
          <mxGeometry relative="1" as="geometry">
            <mxPoint x="530" y="30" as="targetPoint" />
            <Array as="points">
              <mxPoint x="170" y="-20" />
              <mxPoint x="530" y="-20" />
            </Array>
          </mxGeometry>
        </mxCell>
        <mxCell id="OOfffAFFu63hO1M-mAU9-40" value="Inheritance" style="edgeLabel;html=1;align=center;verticalAlign=middle;resizable=0;points=[];" vertex="1" connectable="0" parent="OOfffAFFu63hO1M-mAU9-39">
          <mxGeometry x="-0.4" y="-2" relative="1" as="geometry">
            <mxPoint as="offset" />
          </mxGeometry>
        </mxCell>
        <mxCell id="OOfffAFFu63hO1M-mAU9-36" value="DiscountVolume (DiscountBase)" style="swimlane;" vertex="1" parent="1">
          <mxGeometry x="70" y="-170" width="200" height="110" as="geometry" />
        </mxCell>
        <mxCell id="OOfffAFFu63hO1M-mAU9-42" value="(int amount)" style="text;html=1;align=center;verticalAlign=middle;resizable=0;points=[];autosize=1;strokeColor=none;fillColor=none;" vertex="1" parent="OOfffAFFu63hO1M-mAU9-36">
          <mxGeometry x="5" y="30" width="80" height="20" as="geometry" />
        </mxCell>
        <mxCell id="OOfffAFFu63hO1M-mAU9-43" value="(DateTime buyDate)" style="text;html=1;align=center;verticalAlign=middle;resizable=0;points=[];autosize=1;strokeColor=none;fillColor=none;" vertex="1" parent="1">
          <mxGeometry x="580" y="-140" width="120" height="20" as="geometry" />
        </mxCell>
        <mxCell id="OOfffAFFu63hO1M-mAU9-60" style="edgeStyle=orthogonalEdgeStyle;rounded=0;orthogonalLoop=1;jettySize=auto;html=1;" edge="1" parent="1" source="OOfffAFFu63hO1M-mAU9-44">
          <mxGeometry relative="1" as="geometry">
            <mxPoint x="420" y="760" as="targetPoint" />
          </mxGeometry>
        </mxCell>
        <mxCell id="OOfffAFFu63hO1M-mAU9-44" value="CalculationViewModel" style="swimlane;" vertex="1" parent="1">
          <mxGeometry x="150" y="810" width="160" height="150" as="geometry" />
        </mxCell>
        <mxCell id="OOfffAFFu63hO1M-mAU9-45" value="- Products&lt;br&gt;- Customers&lt;br&gt;- ProductId&lt;br&gt;-CustomerId&lt;br&gt;- FinalPrice" style="text;html=1;align=center;verticalAlign=middle;resizable=0;points=[];autosize=1;strokeColor=none;fillColor=none;" vertex="1" parent="OOfffAFFu63hO1M-mAU9-44">
          <mxGeometry x="35" y="35" width="80" height="80" as="geometry" />
        </mxCell>
        <mxCell id="OOfffAFFu63hO1M-mAU9-61" style="edgeStyle=orthogonalEdgeStyle;rounded=0;orthogonalLoop=1;jettySize=auto;html=1;" edge="1" parent="1" source="OOfffAFFu63hO1M-mAU9-46">
          <mxGeometry relative="1" as="geometry">
            <mxPoint x="420" y="880" as="targetPoint" />
          </mxGeometry>
        </mxCell>
        <mxCell id="OOfffAFFu63hO1M-mAU9-46" value="Index (Calcualation view)" style="swimlane;" vertex="1" parent="1">
          <mxGeometry x="210" y="1010" width="150" height="100" as="geometry" />
        </mxCell>
        <mxCell id="OOfffAFFu63hO1M-mAU9-62" style="edgeStyle=orthogonalEdgeStyle;rounded=0;orthogonalLoop=1;jettySize=auto;html=1;" edge="1" parent="1" source="OOfffAFFu63hO1M-mAU9-47">
          <mxGeometry relative="1" as="geometry">
            <mxPoint x="420" y="880" as="targetPoint" />
          </mxGeometry>
        </mxCell>
        <mxCell id="OOfffAFFu63hO1M-mAU9-47" value="Calculate(Calcualation view)" style="swimlane;" vertex="1" parent="1">
          <mxGeometry x="479" y="1010" width="181" height="100" as="geometry" />
        </mxCell>
        <mxCell id="OOfffAFFu63hO1M-mAU9-49" value="" style="endArrow=none;dashed=1;html=1;dashPattern=1 3;strokeWidth=2;rounded=0;" edge="1" parent="1">
          <mxGeometry width="50" height="50" relative="1" as="geometry">
            <mxPoint x="44" y="990" as="sourcePoint" />
            <mxPoint x="794" y="990" as="targetPoint" />
          </mxGeometry>
        </mxCell>
        <mxCell id="OOfffAFFu63hO1M-mAU9-50" value="Views" style="text;html=1;align=center;verticalAlign=middle;resizable=0;points=[];autosize=1;strokeColor=none;fillColor=none;" vertex="1" parent="1">
          <mxGeometry x="35" y="1010" width="50" height="20" as="geometry" />
        </mxCell>
        <mxCell id="OOfffAFFu63hO1M-mAU9-51" value="ViewModel" style="text;html=1;align=center;verticalAlign=middle;resizable=0;points=[];autosize=1;strokeColor=none;fillColor=none;" vertex="1" parent="1">
          <mxGeometry x="15" y="800" width="70" height="20" as="geometry" />
        </mxCell>
        <mxCell id="OOfffAFFu63hO1M-mAU9-52" value="" style="endArrow=none;dashed=1;html=1;dashPattern=1 3;strokeWidth=2;rounded=0;" edge="1" parent="1">
          <mxGeometry width="50" height="50" relative="1" as="geometry">
            <mxPoint x="30" y="780" as="sourcePoint" />
            <mxPoint x="780" y="780" as="targetPoint" />
          </mxGeometry>
        </mxCell>
        <mxCell id="OOfffAFFu63hO1M-mAU9-53" value="" style="endArrow=none;dashed=1;html=1;dashPattern=1 3;strokeWidth=2;rounded=0;" edge="1" parent="1">
          <mxGeometry width="50" height="50" relative="1" as="geometry">
            <mxPoint x="20" y="620" as="sourcePoint" />
            <mxPoint x="770" y="620" as="targetPoint" />
          </mxGeometry>
        </mxCell>
        <mxCell id="OOfffAFFu63hO1M-mAU9-54" value="Controllers" style="text;html=1;align=center;verticalAlign=middle;resizable=0;points=[];autosize=1;strokeColor=none;fillColor=none;" vertex="1" parent="1">
          <mxGeometry y="630" width="70" height="20" as="geometry" />
        </mxCell>
        <mxCell id="OOfffAFFu63hO1M-mAU9-55" value="" style="endArrow=none;dashed=1;html=1;dashPattern=1 3;strokeWidth=2;rounded=0;" edge="1" parent="1">
          <mxGeometry width="50" height="50" relative="1" as="geometry">
            <mxPoint x="30" y="140" as="sourcePoint" />
            <mxPoint x="780" y="140" as="targetPoint" />
          </mxGeometry>
        </mxCell>
        <mxCell id="OOfffAFFu63hO1M-mAU9-56" value="Application" style="text;html=1;align=center;verticalAlign=middle;resizable=0;points=[];autosize=1;strokeColor=none;fillColor=none;" vertex="1" parent="1">
          <mxGeometry x="10" y="340" width="70" height="20" as="geometry" />
        </mxCell>
        <mxCell id="OOfffAFFu63hO1M-mAU9-57" value="" style="endArrow=none;dashed=1;html=1;dashPattern=1 3;strokeWidth=2;rounded=0;" edge="1" parent="1">
          <mxGeometry width="50" height="50" relative="1" as="geometry">
            <mxPoint x="50" y="340" as="sourcePoint" />
            <mxPoint x="800" y="340" as="targetPoint" />
          </mxGeometry>
        </mxCell>
        <mxCell id="OOfffAFFu63hO1M-mAU9-58" value="Infrastructure" style="text;html=1;align=center;verticalAlign=middle;resizable=0;points=[];autosize=1;strokeColor=none;fillColor=none;" vertex="1" parent="1">
          <mxGeometry y="150" width="90" height="20" as="geometry" />
        </mxCell>
        <mxCell id="OOfffAFFu63hO1M-mAU9-59" value="Domain" style="text;html=1;align=center;verticalAlign=middle;resizable=0;points=[];autosize=1;strokeColor=none;fillColor=none;" vertex="1" parent="1">
          <mxGeometry x="20" y="-210" width="60" height="20" as="geometry" />
        </mxCell>
      </root>
    </mxGraphModel>
  </diagram>
</mxfile>
